<?xml version="1.0" standalone="no"?>
<!DOCTYPE svg PUBLIC "-//W3C//DTD SVG 20010904//EN"
 "http://www.w3.org/TR/2001/REC-SVG-20010904/DTD/svg10.dtd">
<svg version="1.0" xmlns="http://www.w3.org/2000/svg"
 width="512.000000pt" height="512.000000pt" viewBox="0 0 512.000000 512.000000"
 preserveAspectRatio="xMidYMid meet">
<metadata>
Created by potrace 1.16, written by Peter Selinger 2001-2019
</metadata>
<g transform="translate(0.000000,512.000000) scale(0.100000,-0.100000)"
fill="#000000" stroke="none">
<path d="M2473 4541 c-43 -22 -132 -56 -198 -76 -147 -45 -440 -162 -555 -221
-47 -24 -129 -77 -183 -117 -178 -133 -225 -182 -356 -371 -67 -97 -126 -176
-130 -176 -23 0 -98 -83 -147 -163 -174 -281 -257 -525 -304 -892 -49 -392
-36 -342 -133 -502 -69 -113 -87 -150 -87 -180 0 -35 24 -97 51 -134 14 -19
-14 -66 -95 -160 -31 -35 -56 -68 -56 -72 0 -29 226 73 317 142 l51 39 13 -30
c11 -26 9 -36 -10 -81 -104 -236 -115 -280 -106 -414 8 -104 5 -111 -66 -194
-26 -31 -57 -72 -68 -91 -42 -71 -78 -276 -51 -293 5 -3 25 5 43 19 24 19 46
26 76 26 l42 0 -6 -42 c-4 -31 -2 -49 9 -63 14 -20 15 -19 84 18 50 27 82 37
114 37 39 0 45 -3 55 -30 14 -37 42 -39 86 -6 18 13 59 28 92 35 77 14 130 52
168 119 25 45 30 65 30 120 0 37 -8 92 -18 122 l-17 56 34 99 34 100 60 -37
c106 -67 341 -146 439 -148 50 -1 49 -15 -9 -99 -61 -89 -84 -152 -93 -252 -7
-84 3 -152 27 -181 l20 -23 50 54 50 54 52 -7 c88 -12 145 -43 189 -102 22
-30 48 -58 59 -64 27 -14 56 2 64 36 7 25 10 26 52 21 25 -2 54 -13 65 -23 20
-18 21 -18 35 1 8 10 14 25 14 32 0 7 5 13 11 13 24 0 48 -22 63 -60 18 -45
26 -48 49 -22 44 49 61 192 34 283 -11 36 -11 50 -1 74 7 17 15 55 19 85 15
140 28 226 36 241 6 12 30 18 91 23 130 11 343 45 442 71 196 51 420 145 537
225 32 22 61 40 63 40 2 0 -4 -23 -15 -50 -10 -28 -19 -68 -19 -90 0 -35 -6
-47 -45 -85 -62 -59 -95 -133 -95 -211 0 -36 6 -68 14 -80 14 -19 15 -19 38 4
35 32 45 28 52 -26 12 -91 85 -173 167 -188 19 -4 44 -16 57 -28 22 -20 24
-20 36 -3 13 16 20 16 126 2 72 -9 119 -20 130 -30 17 -15 19 -14 34 7 9 12
16 28 16 35 0 19 9 16 47 -13 45 -34 57 -24 50 42 -6 58 -1 63 38 38 33 -22
55 -4 55 43 0 64 -60 164 -120 199 -22 13 -33 33 -49 88 -33 111 -31 118 55
225 106 132 170 230 219 335 54 115 65 163 65 274 0 113 -25 198 -80 275 l-41
57 41 67 c64 106 85 186 85 324 0 113 -1 116 -38 192 -29 59 -52 89 -104 134
-36 32 -80 73 -97 91 -17 18 -75 78 -128 133 -60 61 -95 104 -92 113 6 14 18
23 152 111 50 32 106 84 174 159 83 92 109 129 151 216 28 58 63 120 78 137
40 47 50 90 56 258 5 137 4 155 -14 196 -14 30 -30 49 -49 58 -16 6 -39 27
-51 45 -14 21 -45 45 -84 65 -62 31 -64 31 -217 31 -86 0 -195 5 -243 11 -227
29 -460 -68 -547 -228 -17 -32 -50 -77 -72 -101 l-41 -43 -87 82 c-151 141
-319 238 -507 290 -104 28 -141 25 -232 -20z m271 -42 c162 -54 306 -141 406
-244 l45 -47 -43 21 c-24 12 -82 35 -130 50 -80 26 -93 35 -159 99 -52 52 -94
81 -155 111 -99 49 -88 52 36 10z m1239 25 c40 -8 33 -21 -16 -26 -62 -7 -100
-28 -119 -66 l-16 -33 -12 36 c-11 33 -10 39 11 61 22 24 17 32 -10 15 -16
-10 -44 -3 -36 9 6 9 157 12 198 4z m-1332 -50 c88 -45 199 -134 199 -162 0
-6 -38 -31 -84 -57 l-83 -45 -116 6 -115 7 -66 53 -66 53 43 34 c23 18 67 51
97 72 72 50 83 61 40 40 -35 -18 -184 -128 -194 -143 -2 -4 30 -35 72 -68 l77
-61 119 -5 120 -6 85 44 c51 27 99 44 119 44 98 0 362 -103 362 -142 0 -17
-44 -7 -155 37 -196 78 -249 77 -369 -8 -28 -20 -34 -20 -155 -9 -100 10 -131
16 -151 32 -14 11 -55 44 -92 72 -38 28 -68 54 -68 58 0 4 12 16 28 25 15 10
52 39 82 65 62 53 148 110 166 110 7 0 54 -21 105 -46z m1506 25 c43 -12 134
-41 203 -66 69 -25 132 -47 140 -50 20 -6 -1 -18 -78 -43 -73 -25 -89 -25 -97
1 -18 57 -101 117 -220 160 -69 24 -41 23 52 -2z m241 -10 c54 -27 92 -62 80
-75 -2 -2 -29 6 -59 18 -30 11 -101 35 -159 54 l-105 33 91 0 c82 1 97 -2 152
-30z m-600 -44 c7 -25 12 -54 12 -64 0 -30 -45 -58 -103 -66 -28 -4 -67 -16
-85 -27 -61 -37 -121 -151 -137 -260 -8 -57 26 -212 65 -295 35 -75 119 -169
175 -194 32 -15 35 -19 17 -19 -70 0 -164 89 -223 213 -21 45 -39 75 -39 66 0
-10 20 -58 45 -107 33 -66 59 -103 97 -137 57 -52 135 -95 157 -87 8 2 11 0 8
-5 -3 -5 49 -9 128 -8 143 0 140 -7 -12 -25 -80 -10 -101 -9 -142 5 -99 32
-241 177 -305 310 -46 94 -60 168 -59 301 1 224 72 354 233 427 105 47 150 40
168 -28z m293 29 c122 -37 210 -99 208 -148 0 -17 -3 -16 -14 9 -7 17 -23 39
-34 49 l-22 20 16 -30 c8 -16 15 -45 15 -64 l0 -35 -18 35 c-40 80 -165 134
-257 111 -61 -15 -95 -14 -102 5 -7 20 6 32 53 49 52 19 89 18 155 -1z m-1752
-52 c-72 -55 -93 -64 -194 -83 -59 -11 -111 -19 -117 -17 -22 8 272 115 321
117 8 1 3 -7 -10 -17z m1754 -23 c44 -12 127 -87 127 -114 0 -17 -1 -17 -21 1
l-22 19 22 -42 c32 -63 25 -66 -9 -4 -58 105 -109 136 -204 128 l-61 -5 40 13
c50 17 80 18 128 4z m-40 -33 c34 -14 70 -50 81 -79 5 -17 3 -17 -29 3 -29 18
-35 19 -35 6 0 -9 -5 -16 -10 -16 -6 0 -10 8 -8 17 2 12 -11 22 -47 35 -84 31
-82 30 -55 38 39 12 68 11 103 -4z m526 -37 c14 -40 14 -108 1 -224 -16 -139
-15 -135 -59 -135 -21 0 -107 -16 -192 -36 -175 -41 -307 -50 -334 -24 -14 14
-8 23 58 91 64 65 81 77 133 91 95 27 164 99 164 172 0 20 10 28 68 52 37 15
78 36 92 45 31 22 54 11 69 -32z m-758 8 l-24 -22 19 27 c10 14 21 24 23 22 3
-3 -6 -15 -18 -27z m55 0 c12 17 13 16 14 -10 0 -45 20 -110 40 -135 10 -12
40 -32 66 -44 39 -17 60 -19 110 -15 42 4 66 2 70 -5 5 -8 2 -9 -9 -5 -10 3
-17 3 -17 -1 0 -4 -33 -7 -73 -7 -96 1 -130 22 -201 125 -50 72 -52 79 -37 95
15 15 16 15 19 0 3 -15 5 -14 18 2z m-1651 -6 c-6 -6 -35 -12 -65 -15 l-55 -5
50 13 c62 17 82 19 70 7z m1698 -26 c-3 -9 -8 -14 -10 -11 -3 3 -2 9 2 15 9
16 15 13 8 -4z m-1836 -1 c-3 -3 -12 -4 -19 -1 -8 3 -5 6 6 6 11 1 17 -2 13
-5z m1693 -14 c0 -12 9 -39 21 -61 28 -56 19 -58 -20 -4 -29 41 -73 66 -88 51
-4 -3 3 -6 13 -6 23 0 59 -35 100 -99 l28 -43 -36 -34 c-44 -39 -99 -56 -175
-52 -80 4 -87 20 -44 103 18 36 48 78 67 95 19 16 31 30 26 30 -16 0 -89 -85
-111 -129 -24 -46 -27 -84 -7 -100 23 -19 98 -23 154 -8 52 14 52 14 35 -5
-10 -11 -37 -33 -61 -49 l-43 -29 -47 24 c-94 48 -101 79 -44 201 36 77 79
111 153 124 79 13 79 13 79 -9z m69 -40 c18 -33 43 -73 57 -90 33 -39 9 -41
-37 -3 -30 25 -79 112 -79 141 0 31 30 7 59 -48z m111 10 c12 -23 35 -50 53
-60 18 -11 27 -20 21 -20 -21 0 -64 42 -84 81 -11 21 -18 39 -15 39 2 0 14
-18 25 -40z m-2001 26 c-2 -2 -37 -18 -78 -35 -102 -43 -171 -87 -275 -175
-49 -41 -116 -89 -150 -107 -34 -17 -77 -43 -96 -57 -62 -46 -10 7 90 90 172
145 289 218 418 264 60 21 102 31 91 20z m2371 -36 c0 -45 -34 -91 -92 -124
l-33 -19 19 21 c20 23 9 31 -12 10 -9 -9 -15 -9 -24 1 -11 11 -10 13 0 7 6 -4
27 3 45 15 18 13 28 17 22 8 -5 -8 0 -4 12 10 12 13 24 40 28 60 6 30 19 50
33 51 1 0 2 -18 2 -40z m-1975 -35 c48 -36 93 -65 99 -65 25 0 204 -30 238
-40 22 -7 39 -19 43 -31 9 -29 5 -30 -46 -15 -74 23 -172 30 -216 16 -21 -7
-78 -46 -126 -87 l-88 -74 -87 -4 c-52 -2 -124 -14 -181 -29 l-94 -26 -51 39
c-76 57 -87 61 -180 61 -51 0 -86 4 -86 10 0 6 39 10 98 10 96 0 100 -1 142
-32 24 -18 52 -39 62 -47 20 -15 48 -10 301 51 27 6 64 33 125 90 48 44 88 83
88 87 1 3 -27 32 -62 64 l-63 57 -63 -2 -63 -1 62 -6 c67 -7 96 -26 135 -89
l21 -34 -74 -74 c-48 -49 -83 -75 -103 -79 -17 -3 -89 -20 -159 -37 l-128 -31
-32 30 c-63 59 -74 63 -179 63 -54 0 -98 4 -98 9 0 14 80 82 160 135 109 73
227 115 376 135 135 17 134 17 229 -54z m1620 -15 c24 -23 35 -25 113 -25 48
1 76 -2 62 -6 -46 -13 -130 -9 -161 6 -31 17 -69 69 -69 95 1 8 7 2 14 -15 7
-16 26 -41 41 -55z m-595 -55 c-27 -180 54 -468 174 -618 92 -113 192 -163
316 -154 41 3 100 12 130 21 30 8 57 13 59 10 2 -2 -26 -18 -63 -35 -214 -100
-413 -3 -556 273 -30 58 -57 105 -59 102 -2 -2 23 -59 57 -126 102 -208 220
-311 375 -328 62 -6 62 -6 24 -14 -203 -43 -439 192 -513 510 -22 94 -26 297
-7 329 10 17 13 6 14 -70 l2 -90 8 90 c8 85 35 192 46 182 2 -3 -1 -40 -7 -82z
m-330 -1 c135 -63 129 -55 84 -99 l-39 -38 38 32 c60 49 77 41 28 -15 -16 -18
-33 -40 -38 -48 -6 -10 -33 -19 -78 -25 -39 -4 -59 -9 -46 -10 l25 -1 -29 -30
-28 -29 -90 77 c-84 72 -135 141 -121 164 3 5 29 22 57 39 70 40 123 37 237
-17z m836 -16 c36 -18 106 -37 159 -42 22 -2 11 -3 -25 -1 -77 2 -170 25 -170
41 0 6 -7 17 -15 24 -8 7 -15 18 -15 24 1 6 9 1 18 -10 10 -12 31 -28 48 -36z
m45 -48 c35 -11 76 -25 91 -29 17 -6 30 -6 34 0 3 5 9 9 14 9 5 0 -1 -10 -13
-23 -74 -78 -207 -226 -207 -232 0 -3 25 14 56 39 31 26 63 46 71 46 16 0 -40
-53 -124 -119 -98 -77 -213 -23 -213 101 0 39 5 52 28 73 36 34 65 40 94 21
13 -8 47 -20 76 -26 68 -15 106 -3 162 55 57 58 45 58 -20 0 -45 -40 -56 -45
-98 -45 -28 0 -67 10 -97 23 l-49 23 48 52 c27 29 56 52 65 52 10 0 46 -9 82
-20z m-649 -93 c-4 -69 1 -104 23 -193 54 -209 122 -333 248 -450 77 -71 66
-79 -28 -19 -73 47 -132 116 -177 208 -21 45 -36 71 -33 57 15 -60 75 -159
133 -222 72 -76 141 -115 220 -125 76 -9 64 -33 -17 -33 -52 0 -126 40 -202
108 -78 70 -49 23 35 -56 81 -76 130 -96 229 -90 75 5 78 4 51 -10 -43 -23
-150 -20 -202 5 -23 12 -40 17 -36 12 7 -12 72 -45 105 -52 15 -4 48 -3 73 2
25 5 46 6 46 3 0 -18 -56 -72 -100 -96 -73 -40 -147 -45 -241 -17 -61 19 -81
31 -130 80 -48 49 -60 68 -78 128 -12 39 -21 83 -21 98 0 25 5 21 41 -36 56
-85 105 -145 143 -171 19 -13 6 4 -32 45 -65 68 -109 149 -118 214 -4 25 4 11
24 -45 34 -95 65 -140 130 -187 61 -45 78 -45 20 -1 -52 40 -92 90 -118 149
-23 52 -43 171 -34 201 6 17 10 12 20 -29 l13 -50 -5 50 c-3 28 -7 66 -9 85
-3 21 4 8 18 -35 33 -99 81 -186 130 -231 l41 -39 -41 47 c-55 62 -96 143 -97
195 -1 22 -5 39 -10 35 -5 -3 -7 2 -3 11 4 10 -2 95 -13 190 -23 196 -25 270
-9 316 6 17 12 31 13 31 1 0 0 -38 -2 -83z m-626 43 c90 -23 128 -46 215 -128
l63 -59 -11 -99 c-19 -173 -62 -260 -172 -351 -153 -126 -286 -160 -387 -98
-95 59 -151 205 -142 368 8 135 29 176 145 277 74 66 149 110 184 110 14 0 61
-9 105 -20z m943 -82 c30 -16 31 -20 31 -81 0 -81 26 -125 87 -146 61 -22 109
-4 200 76 l75 66 82 2 c48 2 146 17 242 39 201 45 219 46 195 7 -6 -9 -30 -15
-67 -16 -33 -1 -102 -14 -154 -30 -52 -15 -117 -31 -145 -36 -30 -5 -7 -5 60
-1 117 7 196 7 232 1 18 -2 22 -8 17 -24 -12 -40 -58 -110 -99 -150 -47 -45
-149 -104 -192 -110 -16 -2 -55 -9 -88 -14 -96 -17 -117 -12 -37 9 98 26 158
60 228 131 32 32 56 59 52 59 -3 0 -34 -23 -69 -51 -114 -91 -216 -129 -346
-129 -143 0 -231 43 -306 150 -41 60 -85 185 -94 270 l-6 55 35 -30 c19 -17
49 -38 67 -47z m-409 -293 c-14 -96 -65 -257 -114 -353 -42 -84 -158 -258
-218 -328 -61 -71 -152 -151 -288 -252 -125 -94 -435 -395 -536 -522 -218
-273 -293 -439 -312 -686 l-7 -89 -26 45 c-48 81 -64 146 -63 255 1 171 57
334 147 433 23 25 101 84 172 130 169 111 261 182 360 276 l80 77 -116 -85
c-64 -47 -159 -112 -212 -145 l-97 -60 -13 32 c-19 43 -44 125 -51 162 -6 28
-3 32 51 62 128 70 300 231 380 354 l37 57 108 -100 c59 -55 105 -105 101
-111 -3 -6 -1 -7 5 -3 24 14 10 36 -74 115 l-85 81 53 0 c62 0 112 12 190 47
l58 26 22 -29 c33 -42 81 -91 72 -74 -4 8 -23 36 -41 61 -18 26 -33 51 -33 56
0 5 14 17 30 26 48 29 145 123 196 190 95 125 142 267 165 492 11 121 18 144
48 179 15 17 16 9 19 -110 2 -71 -2 -165 -8 -209z m-1546 275 c71 0 88 -7 170
-73 l69 -55 51 24 c115 52 227 67 267 36 l22 -19 -24 -74 c-20 -62 -24 -94
-24 -194 1 -171 33 -267 129 -380 39 -45 31 -14 -9 39 -42 54 -33 61 14 12 34
-35 34 -35 29 -115 -4 -66 -9 -87 -33 -123 -65 -99 -290 -323 -373 -371 l-31
-17 -14 52 c-24 85 -38 184 -46 325 -11 193 1 318 45 453 19 62 34 113 32 116
-2 2 -23 -52 -47 -119 -34 -98 -41 -112 -36 -72 9 72 32 160 60 233 28 70 29
76 15 67 -17 -10 -67 -117 -85 -181 -25 -83 -32 -498 -14 -729 19 -236 18
-254 -9 -293 -43 -60 -68 -66 -185 -43 -56 12 -124 24 -152 29 l-50 7 -8 70
c-5 39 -7 156 -5 260 2 109 0 171 -4 145 -15 -89 -21 -422 -9 -513 15 -114 61
-294 107 -424 35 -99 37 -102 63 -97 33 7 56 -16 47 -49 -17 -68 -104 -152
-211 -203 -61 -29 -66 -23 -58 73 5 67 3 78 -30 155 -42 99 -72 191 -91 278
-21 97 -19 38 4 -93 35 -205 48 -253 74 -265 23 -10 24 -15 22 -101 l-1 -91
-35 -8 c-95 -20 -293 8 -307 44 -2 7 8 31 23 54 15 22 33 62 40 88 11 43 14
47 40 45 l29 -2 -26 16 c-40 24 -116 243 -145 418 l-14 80 5 -100 c3 -55 16
-154 29 -220 13 -66 22 -122 20 -124 -2 -2 8 -13 22 -24 24 -18 26 -24 20 -70
-6 -39 -43 -135 -62 -156 -7 -7 -138 72 -247 149 -111 78 -176 110 -223 110
-13 0 -24 3 -24 6 0 11 110 193 120 199 14 9 130 -46 183 -86 l42 -31 -47 44
c-25 25 -71 58 -102 74 -31 16 -56 36 -56 44 1 8 7 53 14 100 l13 85 4 -67 c3
-37 7 -70 10 -73 3 -3 40 -1 82 5 42 5 83 7 91 4 8 -3 21 -38 31 -82 9 -42 30
-111 46 -152 17 -43 29 -96 30 -125 l1 -50 10 45 c8 34 6 60 -5 110 -43 181
-51 246 -52 425 0 132 5 208 19 287 l18 106 -27 56 -27 56 35 73 c19 39 54
115 77 168 51 120 58 129 95 132 27 2 30 -1 29 -28 0 -16 -10 -76 -22 -131
-33 -155 -45 -322 -32 -466 6 -67 13 -124 15 -127 3 -2 5 81 5 185 0 188 12
308 46 462 10 45 14 89 10 114 -6 39 -4 44 41 90 71 72 40 58 -39 -18 -38 -37
-72 -63 -76 -59 -10 10 206 214 234 221 28 7 68 -18 94 -61 19 -30 19 -35 5
-74 -8 -22 -12 -41 -9 -41 7 0 84 171 84 188 0 9 -21 35 -46 59 -57 55 -57 59
39 201 l72 107 89 3 89 3 43 -47 c24 -26 44 -53 44 -60 0 -8 -60 -58 -132
-112 -73 -54 -140 -107 -148 -117 -8 -11 1 -7 20 9 68 54 260 196 265 196 15
0 -14 -26 -103 -93 -159 -119 -214 -176 -265 -275 -45 -89 -71 -159 -81 -222
-4 -21 4 -7 19 34 13 38 58 119 99 180 62 93 97 131 214 238 l140 126 20 -21
21 -21 11 28 c5 15 10 31 10 34 0 6 -68 61 -160 129 -9 7 -51 16 -93 19 -62 6
-78 10 -82 25 -11 32 4 39 30 13 20 -20 34 -24 79 -24z m1463 -87 c-4 -98 -31
-253 -43 -253 -3 0 -24 13 -48 29 l-42 29 3 117 c2 130 6 138 68 166 69 32 68
32 62 -88z m-1624 75 c-4 -7 -30 -48 -59 -90 -28 -42 -70 -114 -94 -159 -35
-67 -64 -104 -154 -194 -101 -100 -114 -110 -143 -107 -18 2 -33 8 -33 13 0
47 259 406 334 464 36 28 136 85 149 85 5 0 5 -6 0 -12z m2064 -339 c50 -69
125 -130 188 -154 37 -15 67 -17 158 -13 l112 5 -55 -18 c-160 -52 -308 11
-419 176 -28 42 -51 82 -50 88 0 7 6 4 12 -7 7 -10 31 -45 54 -77z m-529 13
c17 -13 32 -30 32 -36 0 -28 -72 -157 -119 -214 -130 -157 -381 -302 -520
-302 l-31 0 0 80 c0 79 0 80 21 69 13 -7 39 -8 67 -4 181 27 427 228 478 390
11 33 22 52 28 48 6 -4 26 -18 44 -31z m-1634 -23 c44 -38 52 -63 31 -95 l-16
-25 -29 39 c-16 22 -39 47 -51 56 -22 15 -22 16 -4 36 24 26 28 26 69 -11z
m2519 -56 c-24 -2 -62 -2 -85 0 -24 2 -5 4 42 4 47 0 66 -2 43 -4z m-2931 -90
c-59 -113 -112 -223 -108 -223 2 0 22 31 44 68 53 89 64 98 87 72 18 -20 17
-23 -37 -138 -30 -64 -61 -130 -67 -147 -8 -19 -26 -36 -51 -48 -55 -26 -88
-54 -110 -95 -19 -36 -20 -36 -14 -7 13 58 86 231 153 360 62 120 136 245 144
245 2 0 -16 -39 -41 -87z m1703 -129 c-25 -20 -75 -46 -75 -40 0 5 82 56 90
56 3 -1 -4 -8 -15 -16z m573 -183 c76 -90 205 -141 325 -128 l52 6 -40 -34
c-22 -19 -68 -49 -102 -66 -53 -27 -70 -31 -108 -26 -128 18 -253 136 -280
266 -10 47 4 38 67 -44 29 -38 75 -85 102 -102 59 -40 84 -44 30 -5 -85 62
-164 180 -163 242 0 22 2 20 13 -10 7 -19 20 -48 30 -65 15 -26 16 -27 10 -5
-31 112 -31 153 1 76 13 -32 41 -79 63 -105z m752 18 c75 -20 140 -53 140 -69
0 -5 -12 -5 -27 1 -16 5 -75 15 -132 23 -57 8 -105 17 -107 19 -7 6 27 47 39
47 7 0 46 -9 87 -21z m-286 -156 c-49 -70 -129 -170 -179 -222 -77 -80 -103
-100 -175 -135 -82 -40 -88 -41 -185 -41 -82 0 -107 4 -139 21 -43 22 -90 74
-101 112 -6 20 1 16 35 -18 60 -60 119 -84 210 -84 85 -1 157 26 220 84 l35
31 -46 -30 c-77 -50 -127 -66 -209 -66 -64 0 -83 5 -122 28 -60 35 -133 129
-153 197 -6 18 8 8 54 -40 l62 -65 -39 60 c-36 55 -60 105 -49 105 2 0 20 -26
40 -59 44 -71 77 -102 43 -40 -13 24 -27 60 -30 79 l-7 35 16 -35 c25 -55 64
-100 113 -131 65 -41 77 -36 15 6 -49 33 -76 63 -103 115 -10 18 1 12 37 -22
72 -67 143 -100 223 -104 60 -3 62 -3 20 6 -108 21 -194 69 -253 143 -42 52
-57 79 -57 106 0 16 15 6 68 -47 62 -63 120 -100 182 -117 15 -4 7 4 -20 20
-55 32 -126 100 -147 140 -15 28 -29 95 -20 95 2 0 23 -29 45 -64 74 -114 172
-181 279 -192 48 -5 69 -2 123 20 35 14 90 46 121 71 31 24 58 42 61 40 2 -2
28 27 58 64 30 38 56 67 58 66 2 -2 -36 -61 -84 -132z m456 20 c77 -38 184
-146 216 -219 35 -78 44 -210 20 -304 -16 -62 -74 -196 -82 -188 -2 2 8 36 22
76 37 107 50 216 36 292 -22 123 -73 192 -212 295 -50 36 -90 68 -90 70 0 13
41 2 90 -22z m-287 -43 c27 -24 63 -77 98 -142 48 -91 54 -99 57 -73 1 17 -6
60 -16 98 -11 37 -16 67 -12 67 9 0 40 -62 40 -80 0 -6 4 -9 9 -6 4 3 6 -7 4
-22 -3 -22 -2 -23 5 -8 8 18 10 16 21 -14 14 -42 27 -180 16 -180 -4 0 -29 20
-56 44 -67 60 -135 77 -206 52 -126 -45 -155 -46 -116 -3 40 43 56 90 63 182
5 78 7 85 14 53 12 -54 26 -37 19 22 -7 62 3 64 60 10z m-3042 -14 c-12 -12
-23 -40 -25 -62 -2 -21 -16 -79 -31 -127 -15 -49 -25 -91 -22 -93 6 -7 67 171
67 198 1 18 7 11 27 -26 29 -57 30 -83 8 -221 -9 -55 -18 -163 -22 -240 l-6
-140 -93 0 c-83 0 -94 2 -94 18 0 13 8 17 34 17 47 0 136 21 136 33 0 5 -31 6
-74 2 l-74 -7 -7 32 c-11 52 12 251 47 405 25 108 58 178 106 224 39 37 59 25
23 -13z m2900 -77 c-13 -60 -54 -150 -78 -171 -10 -9 -44 -18 -76 -20 -66 -5
-67 -10 30 92 28 30 63 75 77 100 l26 45 -5 -35 c-4 -28 -1 -25 12 15 20 61
29 44 14 -26z m384 -99 c9 -17 14 -34 11 -38 -3 -5 -1 -30 3 -58 l9 -49 1 50
c2 48 2 49 15 25 29 -53 57 -159 63 -236 5 -77 5 -82 -18 -97 -13 -10 -35 -17
-49 -17 -24 0 -25 2 -26 73 -1 89 -21 331 -29 358 -10 29 3 23 20 -11z m-1255
-245 c40 -151 47 -251 26 -376 -8 -53 -20 -107 -26 -120 -9 -21 -10 -20 -5 11
31 213 24 337 -29 484 -36 98 -45 169 -29 226 6 20 9 13 19 -40 7 -36 27 -119
44 -185z m-85 -45 c15 -63 29 -151 31 -195 l4 -80 -19 95 c-10 52 -26 127 -35
165 -25 102 -37 214 -29 255 6 30 8 24 14 -45 4 -44 19 -132 34 -195z m-36
-67 c17 -72 31 -138 31 -146 0 -10 -18 3 -45 32 -64 68 -132 103 -217 109 -75
5 -89 17 -30 28 61 11 73 23 22 24 l-45 2 50 18 c45 17 47 19 20 19 -23 1 -27
4 -15 11 24 16 48 12 71 -11 l22 -22 -7 64 -6 64 23 -56 c13 -30 31 -66 41
-80 l18 -24 -6 25 c-15 62 -27 150 -24 171 2 15 10 -6 20 -51 l16 -75 2 100 2
100 13 -86 c8 -47 28 -145 44 -216z m297 141 c31 -9 65 -12 94 -8 l45 6 -60
-42 c-81 -57 -101 -76 -150 -142 l-42 -57 -7 56 c-4 30 -16 91 -27 135 -11 44
-19 82 -16 84 2 2 18 -31 35 -73 34 -85 41 -70 17 32 -24 98 -21 105 23 62 24
-23 58 -44 88 -53z m-169 54 c-3 -8 -6 -5 -6 6 -1 11 2 17 5 13 3 -3 4 -12 1
-19z m1097 8 c65 -27 116 -126 116 -226 0 -66 -42 -223 -83 -312 -66 -144
-161 -258 -214 -258 -12 0 -48 11 -79 25 -31 14 -64 25 -74 25 -9 0 -19 2 -22
6 -3 3 10 41 28 86 68 161 114 370 114 520 0 73 1 78 29 98 70 49 127 60 185
36z m-298 -25 c51 -23 59 -49 49 -154 -21 -220 -106 -472 -191 -567 -58 -64
-95 -72 -369 -79 -237 -7 -241 -7 -294 -35 -46 -24 -53 -25 -46 -9 4 10 30 83
57 163 27 80 47 132 44 115 -2 -16 -7 -48 -10 -70 -4 -22 7 3 24 55 17 52 42
112 55 132 25 38 118 118 137 118 6 0 25 -9 42 -19 51 -32 93 -99 128 -201
l19 -55 -6 50 c-3 28 -17 73 -31 102 -29 61 -106 133 -141 133 -35 0 -98 -35
-150 -83 -45 -41 -46 -42 -30 -10 34 65 141 195 201 244 99 80 256 152 387
178 66 13 80 12 125 -8z m-826 -204 c12 -74 12 -176 1 -232 -7 -32 -9 -18 -10
65 -1 66 -11 151 -26 230 -14 69 -24 130 -24 135 2 21 49 -138 59 -198z m-950
21 c11 -34 20 -66 20 -70 0 -4 -21 -22 -47 -40 -128 -87 -189 -170 -234 -318
l-22 -75 -67 136 c-79 163 -153 416 -118 404 97 -32 265 -75 293 -75 29 0 44
8 80 45 24 25 47 55 51 67 5 18 8 19 15 6 5 -9 18 -45 29 -80z m636 -107 c92
-53 155 -149 174 -268 15 -90 10 -129 -6 -53 -20 93 -67 179 -132 241 l-55 54
44 -55 c59 -72 72 -93 98 -165 34 -90 39 -210 13 -310 -11 -44 -32 -105 -46
-135 -15 -30 -24 -48 -22 -39 20 77 38 233 34 307 -7 140 -54 222 -188 323
l-71 54 38 11 38 11 -35 7 c-19 3 -53 7 -75 9 l-40 3 40 8 c23 6 59 5 87 -1
26 -5 48 -8 48 -6 0 1 -15 9 -32 17 l-33 14 35 1 c21 1 55 -10 86 -28z m69 5
c66 -30 138 -111 165 -184 13 -33 23 -89 26 -132 l4 -75 -14 70 c-26 137 -108
257 -216 315 -66 36 -39 41 35 6z m1615 5 c0 -4 -27 -34 -61 -65 -34 -31 -58
-48 -54 -39 4 10 12 39 18 66 12 47 12 47 54 47 24 0 43 -4 43 -9z m-1769
-125 c108 -90 144 -147 159 -257 11 -75 7 -128 -27 -344 l-17 -110 -11 50 c-7
28 -17 60 -23 72 -9 16 -9 23 2 33 25 20 47 102 53 196 5 76 2 103 -16 162
-12 39 -26 74 -33 78 -8 5 -9 1 -4 -12 4 -10 14 -46 23 -79 31 -120 -6 -307
-63 -321 -35 -9 -109 31 -144 79 -35 47 -37 62 -12 91 16 20 16 20 0 7 -17
-13 -18 -8 -18 75 0 73 -5 98 -24 140 -13 28 -29 55 -36 59 -6 4 -2 -12 10
-35 12 -23 20 -51 18 -63 -7 -52 -164 -90 -201 -49 -34 37 -31 67 9 112 69 76
217 169 269 170 12 0 50 -24 86 -54z m1750 17 c-13 -25 -101 -109 -101 -98 0
8 100 115 108 115 1 0 -2 -8 -7 -17z m145 -70 c23 -33 43 -72 46 -86 5 -23 3
-25 -20 -16 -24 9 -93 7 -122 -5 -72 -28 -68 -29 -72 24 -3 45 1 55 41 110 42
55 46 59 65 47 12 -8 39 -41 62 -74z m-181 -95 c-4 -27 -19 -56 -39 -78 l-31
-35 33 29 c26 24 32 26 32 12 0 -26 -36 -90 -59 -103 -11 -7 -39 -16 -61 -19
l-42 -7 83 122 c45 66 84 121 86 121 3 0 2 -19 -2 -42z m-157 -61 c-57 -95
-112 -164 -151 -188 -35 -22 -85 -22 -190 2 -55 13 -61 12 -160 -21 -99 -33
-107 -34 -317 -40 l-215 -6 -80 -38 c-76 -35 -78 -36 -55 -10 14 14 45 38 70
52 44 27 49 27 275 33 127 3 239 9 250 13 163 65 188 68 280 36 72 -25 102
-25 138 -1 33 21 122 136 164 211 15 27 30 45 31 40 2 -6 -16 -43 -40 -83z
m302 6 c-1 -136 -73 -233 -172 -235 -32 0 -46 5 -60 22 -26 32 -22 42 27 72
35 21 46 35 55 70 18 66 23 72 81 90 72 22 69 23 69 -19z m88 23 c2 -3 7 -36
9 -73 7 -92 -11 -172 -51 -230 -43 -62 -71 -67 -122 -20 l-38 34 50 49 c56 55
74 103 74 200 l0 57 36 -6 c20 -3 39 -8 42 -11z m-2324 -98 c13 -20 15 -31 7
-45 -18 -34 -96 -99 -159 -133 -34 -18 -77 -48 -96 -66 l-35 -34 16 53 c17 57
62 150 88 182 16 20 16 19 5 -3 -21 -43 -39 -103 -30 -97 5 3 28 40 51 83 23
42 56 94 72 115 l30 39 17 -34 c9 -18 24 -45 34 -60z m232 5 c-11 -108 -13
-113 -51 -113 -19 0 -45 4 -60 10 -30 11 -75 57 -75 75 0 7 31 22 69 34 38 11
79 30 92 41 13 10 26 19 28 20 2 0 1 -30 -3 -67z m-1827 -71 c10 -19 3 -72 -9
-72 -9 0 -30 55 -30 76 0 20 28 17 39 -4z m1708 -61 c12 -6 41 -11 65 -11 41
0 44 -2 71 -50 28 -52 102 -110 139 -110 31 0 51 -44 46 -101 -6 -63 -68 -157
-165 -250 -129 -124 -271 -186 -406 -176 -81 5 -81 1 -2 -14 149 -27 316 47
493 219 44 42 64 57 54 39 -29 -49 -168 -180 -234 -219 -89 -55 -173 -78 -272
-77 -93 1 -134 13 -176 52 -33 32 -41 60 -12 50 15 -6 15 -4 -2 16 -41 46 -27
210 22 271 l18 22 26 -23 c28 -26 95 -219 83 -239 -3 -5 -16 -10 -27 -10 -12
0 -19 -3 -15 -6 3 -4 23 -3 43 0 47 9 117 75 180 168 47 71 164 313 164 340 0
7 -30 -43 -66 -112 -37 -69 -86 -154 -110 -191 -54 -82 -129 -163 -143 -155
-11 7 -66 175 -59 181 1 1 18 10 36 19 40 21 41 27 2 20 -37 -8 -80 2 -80 19
0 7 27 39 59 71 l59 58 78 2 c44 1 88 7 99 14 17 11 13 12 -31 7 -63 -8 -131
9 -136 33 -8 34 12 73 68 137 l58 65 25 -24 c14 -13 36 -29 48 -35z m1846 8
c19 -30 0 -66 -48 -89 -26 -12 -48 -20 -51 -18 -2 3 8 33 23 67 21 49 31 61
46 59 11 -2 24 -10 30 -19z m-3531 -81 c-27 -59 -74 -121 -114 -149 -32 -23
-31 -22 10 26 23 26 59 83 80 124 38 78 59 77 24 -1z m3176 27 c69 -21 131
-21 171 -1 l32 17 -25 -48 c-25 -50 -65 -91 -151 -158 -80 -62 -83 -62 -30 -5
48 52 43 52 -19 2 -16 -13 -46 -32 -67 -43 -42 -21 -228 -74 -235 -66 -2 2 15
17 38 32 54 35 91 77 124 138 49 93 43 96 -32 17 -41 -43 -99 -95 -129 -116
l-54 -37 -93 35 c-51 20 -120 43 -153 53 -33 9 -66 22 -73 28 -7 5 -30 13 -50
17 l-37 7 49 23 c58 27 121 36 316 49 120 8 160 15 230 40 99 35 119 36 188
16z m441 -16 c29 -6 60 -24 88 -50 24 -22 57 -42 73 -46 17 -3 30 -9 30 -13 0
-3 -13 -26 -29 -51 -50 -74 -162 -148 -228 -150 -24 0 -25 -1 -8 -8 18 -8 16
-10 -15 -19 -19 -6 -28 -11 -19 -11 9 -1 38 6 65 14 l49 14 -25 -19 c-68 -53
-187 -86 -269 -76 -40 5 -43 4 -21 -6 14 -6 57 -11 95 -12 90 -1 137 21 259
123 87 73 94 60 9 -21 -105 -99 -208 -146 -301 -135 -46 5 -47 5 -17 -8 17 -8
54 -14 84 -15 88 0 48 -15 -57 -20 l-97 -5 59 -14 c32 -7 94 -11 136 -9 43 1
76 0 74 -4 -13 -20 -125 -42 -216 -43 -87 0 -94 -1 -65 -12 41 -15 120 -16
208 -2 39 6 73 8 76 5 10 -10 -65 -36 -105 -36 -21 0 -72 -9 -113 -20 -143
-38 -190 -20 -204 77 -14 102 24 165 120 203 l50 21 -45 -5 c-25 -3 -56 -8
-70 -12 -24 -7 -24 -7 -9 17 9 13 37 31 65 41 l49 17 -40 1 -40 2 60 28 c58
28 64 41 9 20 -47 -18 -38 -3 13 20 42 19 64 22 169 21 67 -1 132 3 145 8 18
8 4 10 -61 11 -47 1 -112 5 -145 9 -65 8 -62 13 22 36 43 12 45 13 16 14 -52
2 -46 16 23 51 36 18 73 43 82 56 20 27 15 26 71 13z m-2154 -65 c-1 -56 -1
-57 -63 -115 -34 -33 -67 -59 -73 -59 -20 0 -6 126 16 151 14 15 108 77 121
79 0 0 0 -25 -1 -56z m-361 -129 c4 -11 -4 1 -18 27 -14 25 -28 66 -31 90 -6
44 -4 39 49 -117z m2745 103 c-12 -24 -24 -38 -26 -31 -4 10 34 73 44 73 2 0
-6 -19 -18 -42z m-3534 -28 c10 -11 14 -20 9 -20 -5 0 8 -11 29 -25 50 -34 47
-37 -10 -9 -25 13 -58 24 -72 23 -18 0 -13 -4 19 -13 41 -11 120 -62 120 -77
0 -3 -26 3 -57 14 -40 13 -76 18 -116 15 -31 -2 -56 -2 -55 1 2 3 10 23 18 45
l15 38 53 -4 c60 -5 57 10 -5 22 l-38 8 36 1 c24 1 42 -5 54 -19z m2096 -52
c-51 -17 -158 -76 -193 -106 -23 -19 -23 -5 0 29 22 33 68 72 122 103 40 23
43 23 82 8 l40 -16 -51 -18z m-1378 -5 c23 -41 27 -44 27 -23 1 24 1 24 12 5
21 -38 81 -130 110 -166 29 -38 35 -59 18 -59 -6 0 -41 30 -78 68 -81 80 -159
222 -124 222 5 0 21 -21 35 -47z m-303 -197 c42 -34 87 -69 100 -79 14 -10 7
-8 -15 4 -95 53 -201 143 -264 223 -74 95 -70 95 20 1 46 -48 118 -115 159
-149z m548 69 l-18 -40 0 60 c0 33 6 78 12 100 l12 40 6 -60 c5 -46 2 -69 -12
-100z m-215 -94 c57 -58 65 -70 38 -55 -51 29 -145 136 -185 213 -51 98 -45
98 20 1 31 -47 88 -118 127 -159z m-81 -51 c116 -79 127 -89 58 -55 -94 47
-182 111 -251 182 -105 108 -102 127 4 27 53 -51 138 -120 189 -154z m1641
197 c42 -20 77 -40 77 -45 0 -5 -38 -12 -85 -16 -100 -8 -144 -20 -285 -74
-134 -52 -191 -64 -83 -19 101 43 139 66 178 108 34 36 33 36 -51 -8 -59 -31
-246 -100 -228 -84 54 47 180 135 224 156 76 36 147 31 253 -18z m-2261 4 c40
-19 87 -66 76 -76 -2 -2 -35 5 -73 16 -39 11 -103 21 -142 22 -40 1 -73 3 -73
5 0 14 25 45 43 52 35 15 119 6 169 -19z m-67 -62 c105 -19 159 -45 178 -84
l17 -35 -38 -1 -37 -1 33 -11 c40 -15 52 -32 52 -74 0 -25 -10 -43 -39 -72
-75 -75 -203 -78 -308 -8 -44 30 -82 81 -69 94 3 3 32 -16 65 -43 33 -27 75
-54 93 -61 44 -15 106 -15 143 1 28 12 25 12 -33 8 -70 -5 -134 9 -172 38
l-25 20 35 -10 c51 -15 125 -12 167 5 50 21 37 27 -28 13 -66 -13 -151 2 -201
35 -39 27 -45 49 -24 82 22 34 37 31 30 -4 -8 -41 23 -71 74 -71 68 0 99 67
61 129 -19 31 -23 33 -60 28 -22 -3 -55 -17 -74 -32 l-35 -26 10 26 c23 61 28
65 79 65 26 0 74 -5 106 -11z m-43 -46 c23 -21 23 -74 0 -103 -16 -19 -24 -22
-56 -16 -59 11 -69 76 -18 116 30 24 50 25 74 3z m1680 -180 c-36 -50 -177
-160 -186 -145 -2 4 31 34 73 65 43 32 89 69 101 82 31 33 36 32 12 -2z m1135
-60 c-3 -3 -16 -2 -28 2 l-23 8 25 20 24 19 3 -22 c2 -12 1 -24 -1 -27z
m-2528 -19 c-19 -20 -61 -50 -94 -65 l-60 -29 50 6 c28 4 67 13 89 20 49 18
51 17 35 -2 -38 -46 -159 -66 -275 -44 -82 15 -134 40 -163 76 -32 41 -28 60
8 35 61 -43 114 -61 187 -61 62 0 81 5 141 35 38 19 78 44 88 55 10 11 21 18
23 15 3 -3 -10 -22 -29 -41z m1367 -25 l-10 -51 -38 4 c-21 2 -38 2 -38 1 0
-2 17 -10 38 -19 53 -24 14 -31 -45 -9 l-45 17 39 18 c21 10 54 34 72 54 19
20 36 36 36 36 1 0 -3 -23 -9 -51z m1122 9 c7 -7 12 -28 11 -47 0 -28 -8 -42
-33 -63 l-32 -26 4 35 c3 25 1 34 -7 29 -18 -11 -13 14 10 50 23 37 29 40 47
22z m542 -8 c0 -18 -37 -29 -130 -38 -75 -8 -106 -16 -164 -46 -68 -34 -149
-66 -167 -66 -15 0 -10 29 11 70 l20 39 63 -5 c42 -4 80 -1 117 10 30 8 90 20
133 25 43 5 81 12 84 15 10 10 33 7 33 -4z m3 -82 c-17 -21 -17 -21 0 -15 29
11 37 0 25 -33 l-10 -30 -34 30 c-36 31 -38 32 -89 34 -19 1 -31 7 -33 18 -3
13 8 18 55 24 32 4 67 10 78 14 27 10 32 -15 8 -42z m-3312 -68 c98 -31 183
-32 232 -3 36 22 37 22 37 3 0 -24 -47 -50 -90 -50 -18 0 -29 -4 -25 -10 11
-17 66 -11 107 12 39 22 40 22 54 3 47 -63 32 -169 -32 -224 -19 -17 -39 -29
-45 -26 -5 4 -9 33 -9 66 l0 59 48 1 c35 0 42 3 27 9 -11 5 -36 9 -56 9 -23 1
-43 8 -55 22 -44 48 -97 60 -144 32 -27 -15 -29 -15 -55 5 -15 12 -43 24 -64
28 -20 4 -48 13 -62 20 -37 19 -79 71 -72 90 4 12 13 8 42 -20 45 -44 98 -66
153 -65 l43 0 -54 15 c-66 17 -114 46 -139 82 -35 50 -13 55 38 9 35 -32 69
-50 121 -67z m1104 79 c32 -14 82 -23 159 -29 110 -8 214 -30 311 -67 42 -15
51 -23 53 -47 7 -58 -5 -61 -59 -12 -67 60 -122 76 -263 76 -102 0 -116 2
-173 29 -34 16 -66 39 -73 50 -13 26 -13 26 45 0z m2053 -16 c2 -13 -3 -31
-10 -42 -22 -31 -117 -101 -123 -91 -9 15 -41 12 -55 -4 -10 -13 -7 -15 16
-13 33 2 42 -20 42 -98 l0 -50 -10 50 c-12 64 -22 74 -38 36 -7 -17 -18 -31
-24 -31 -23 0 -77 41 -96 72 -30 49 -26 73 13 88 17 7 64 29 102 48 78 39 142
62 165 59 8 -1 16 -12 18 -24z m-1622 -5 c66 -17 84 -26 84 -40 0 -22 5 -23
-86 7 -42 14 -100 26 -128 26 -28 1 -42 3 -31 6 11 3 24 9 30 14 14 14 39 11
131 -13z m-392 -115 c24 -13 58 -17 156 -16 109 1 116 0 55 -7 -38 -4 -87 -15
-109 -24 -63 -26 -98 -21 -157 24 -33 25 -64 40 -82 40 -16 0 -27 3 -25 8 25
48 37 85 31 95 -4 7 17 -14 47 -46 29 -32 67 -65 84 -74z m-1123 101 c48 -17
166 -23 214 -11 26 7 28 7 15 -6 -19 -18 -75 -37 -109 -37 -30 0 -159 44 -175
60 -15 15 4 13 55 -6z m1123 -39 c42 -21 63 -25 142 -25 146 0 217 -20 297
-82 25 -20 37 -38 37 -55 0 -23 -3 -21 -45 25 -62 69 -104 82 -269 82 -112 0
-136 3 -163 20 -17 10 -37 28 -43 39 -13 26 -15 26 44 -4z m2131 -7 c30 -25
125 -189 125 -213 0 -3 -24 11 -54 32 -52 36 -53 39 -37 58 16 20 16 20 -6 2
-18 -16 -25 -17 -45 -6 -44 24 -80 54 -94 80 -12 24 -11 30 7 53 27 35 60 33
104 -6z m138 1 c43 -35 44 -42 17 -69 -11 -11 -20 -27 -20 -37 0 -15 -2 -14
-20 2 -25 23 -44 79 -36 111 8 31 14 30 59 -7z m-3598 -29 c43 -44 42 -47 -13
-25 l-37 15 24 -20 c13 -11 30 -20 39 -20 9 0 -7 -23 -41 -56 -77 -77 -77 -98
0 -31 l22 19 -14 -52 c-8 -29 -18 -57 -23 -62 -5 -5 -22 9 -41 32 -22 28 -40
40 -57 40 -22 0 -24 3 -18 23 18 58 94 177 113 177 4 0 25 -18 46 -40z m3325
-25 c0 -8 25 -35 56 -62 55 -48 101 -109 90 -120 -3 -3 -18 -1 -33 5 -15 7
-50 16 -78 22 -127 27 -125 26 -125 75 0 38 5 47 37 74 36 30 53 32 53 6z
m-2075 -36 c26 -24 45 -51 48 -67 l3 -27 11 25 c7 14 12 18 12 10 1 -19 -26
-60 -40 -60 -5 0 -9 10 -10 23 0 17 -3 14 -12 -13 -7 -20 -25 -41 -44 -53 -33
-19 -33 -19 -33 2 0 23 -10 27 -28 9 -9 -9 -16 -8 -30 5 -24 22 -30 21 -53 -5
l-19 -23 6 40 c9 53 29 102 60 142 36 47 72 45 129 -8z m2411 -4 c24 -37 12
-40 -21 -5 -22 23 -25 30 -12 30 9 0 24 -11 33 -25z m-2019 9 c-3 -3 -12 -4
-19 -1 -8 3 -5 6 6 6 11 1 17 -2 13 -5z m-1485 -34 c20 -21 28 -36 23 -48 -3
-9 -11 -38 -17 -64 -11 -44 -14 -48 -57 -63 -25 -8 -58 -27 -73 -42 -41 -39
-42 -24 -3 36 19 29 35 54 35 57 0 2 -9 8 -21 14 -15 9 -24 8 -35 -1 -17 -14
-17 -14 2 52 20 69 38 89 81 89 25 0 43 -8 65 -30z m163 6 c58 -25 90 -98 65
-147 -9 -16 -58 -49 -73 -49 -3 0 -7 18 -11 40 -9 57 -44 73 -87 41 l-31 -23
7 33 c10 48 37 92 66 106 30 16 23 16 64 -1z m1384 -10 c32 -17 63 -54 56 -67
-3 -4 -16 -10 -29 -13 -19 -5 -32 1 -54 24 -35 34 -84 40 -132 15 -49 -25 -60
-60 -60 -192 l-1 -118 -21 40 c-26 51 -26 51 -39 38 -8 -8 -5 -24 10 -58 30
-68 20 -66 -17 3 -27 50 -41 64 -106 102 l-75 44 45 48 c24 26 49 58 55 71 9
21 94 65 154 81 38 10 184 -3 214 -18z m-57 -63 c21 -19 23 -39 6 -46 -10 -3
-10 -8 1 -18 12 -12 13 -12 6 1 -6 11 -5 12 3 5 6 -6 14 -51 17 -100 4 -73 3
-82 -5 -46 -16 75 -30 73 -30 -4 0 -64 -1 -68 -15 -48 -8 11 -26 24 -40 27
-33 8 -66 78 -68 143 -2 39 2 48 31 74 36 33 67 37 94 12z m-1808 -85 c-16
-22 -30 -36 -32 -30 -4 13 26 74 42 84 23 15 17 -14 -10 -54z m1934 50 c5 -7
15 -30 23 -50 11 -33 11 -39 -5 -57 -10 -11 -23 -18 -29 -14 -5 3 -15 -1 -22
-10 -10 -14 -14 -6 -23 51 -10 59 -10 68 5 80 9 6 22 12 29 12 6 0 16 -6 22
-12z m-1500 -20 c17 -17 15 -40 -9 -89 l-20 -44 5 62 c6 68 -7 92 -25 46 -6
-15 -13 -23 -16 -16 -7 19 16 53 35 53 10 0 23 -5 30 -12z m-259 -35 c-30 -51
-33 -53 -25 -18 8 33 23 55 38 55 5 0 -1 -17 -13 -37z m1101 23 c0 -8 -13 -43
-30 -78 -29 -60 -30 -62 -30 -28 0 39 34 120 50 120 5 0 10 -6 10 -14z m699
-169 l-1 -72 -15 63 c-15 63 -12 99 7 87 5 -3 9 -39 9 -78z"/>
<path d="M3600 4405 c-104 -75 -126 -100 -151 -164 -25 -66 -37 -233 -20 -296
9 -35 10 -31 6 35 -7 100 10 221 39 285 19 43 37 61 102 107 66 46 118 90 103
87 -2 0 -38 -25 -79 -54z"/>
<path d="M3759 4425 c-13 -14 -53 -40 -89 -60 -75 -40 -74 -46 2 -11 55 26
127 80 117 90 -3 3 -16 -6 -30 -19z"/>
<path d="M4457 4253 c-14 -14 -6 -50 16 -71 19 -17 25 -19 40 -8 24 18 21 52
-5 70 -24 17 -41 20 -51 9z"/>
<path d="M4544 4244 c3 -8 6 -18 6 -20 0 -2 5 -4 10 -4 16 0 11 27 -6 34 -12
5 -15 2 -10 -10z"/>
<path d="M4099 4017 c-25 -23 -52 -51 -59 -62 -8 -11 15 7 50 40 36 33 66 61
69 63 2 1 0 2 -5 2 -5 -1 -30 -20 -55 -43z"/>
<path d="M1815 4137 c-61 -27 -136 -69 -131 -74 2 -2 50 19 106 47 103 50 120
69 25 27z"/>
<path d="M3655 3400 c8 -13 64 -42 74 -38 4 2 -12 13 -36 25 -24 13 -41 18
-38 13z"/>
<path d="M3270 3400 c0 -8 13 -44 30 -78 54 -114 181 -214 290 -227 42 -5 41
-4 -17 13 -128 39 -236 138 -284 261 -10 25 -18 39 -19 31z"/>
<path d="M3400 3095 c0 -7 61 -37 66 -33 2 3 -12 12 -31 21 -19 9 -35 15 -35
12z"/>
<path d="M4320 3675 c-19 -20 -58 -52 -87 -72 -63 -43 -69 -53 -14 -22 35 19
154 129 140 129 -3 0 -21 -16 -39 -35z"/>
<path d="M4095 3663 c-33 -14 -98 -34 -145 -44 l-85 -19 66 4 c36 3 96 16 134
31 77 29 92 27 42 -4 -51 -31 -114 -52 -187 -60 l-65 -8 56 -2 c33 0 79 7 112
18 56 20 133 69 122 79 -2 3 3 11 13 18 25 19 5 15 -63 -13z"/>
<path d="M2510 2758 c-26 -24 -32 -32 -15 -20 28 18 73 63 64 62 -2 -1 -24
-19 -49 -42z"/>
<path d="M1717 1713 c-10 -53 -20 -158 -13 -152 7 7 29 170 23 176 -2 2 -7 -9
-10 -24z"/>
<path d="M1593 3863 c15 -2 37 -2 50 0 12 2 0 4 -28 4 -27 0 -38 -2 -22 -4z"/>
<path d="M2005 3811 c-70 -20 -96 -33 -116 -58 -11 -13 -7 -12 16 4 57 40 228
73 259 50 18 -13 18 -14 -10 -21 -16 -4 -64 -21 -107 -38 -74 -28 -80 -33 -98
-75 -25 -59 -24 -67 4 -19 18 32 35 44 102 72 44 18 85 33 91 34 7 0 8 -15 3
-47 -33 -201 16 -453 111 -573 16 -21 30 -43 30 -48 0 -6 -26 -30 -57 -53 -32
-23 -49 -39 -38 -35 32 11 104 70 111 89 4 13 -4 28 -26 50 -42 41 -77 111
-102 205 -27 104 -30 324 -4 394 24 69 12 88 -57 87 -29 0 -79 -8 -112 -18z"/>
<path d="M1921 3594 c0 -11 3 -14 6 -6 3 7 2 16 -1 19 -3 4 -6 -2 -5 -13z"/>
<path d="M1891 3392 c-12 -49 -21 -98 -20 -108 0 -11 11 28 25 85 13 58 22
106 20 109 -2 2 -13 -37 -25 -86z"/>
<path d="M1751 3404 c0 -11 3 -14 6 -6 3 7 2 16 -1 19 -3 4 -6 -2 -5 -13z"/>
<path d="M1861 3234 c0 -11 3 -14 6 -6 3 7 2 16 -1 19 -3 4 -6 -2 -5 -13z"/>
<path d="M1061 2474 c0 -11 3 -14 6 -6 3 7 2 16 -1 19 -3 4 -6 -2 -5 -13z"/>
<path d="M817 2005 c7 -49 13 -58 13 -19 0 16 -5 36 -10 44 -6 10 -7 2 -3 -25z"/>
<path d="M1219 3677 c-71 -84 -157 -207 -144 -207 5 0 162 208 179 238 13 22
2 12 -35 -31z"/>
<path d="M3638 2923 c-20 -27 -48 -63 -63 -80 -15 -18 -24 -33 -22 -33 5 0
109 127 121 148 15 26 -1 10 -36 -35z"/>
<path d="M4072 2740 c0 -14 2 -19 5 -12 2 6 2 18 0 25 -3 6 -5 1 -5 -13z"/>
<path d="M4001 2338 c-2 -44 -51 -187 -88 -263 -29 -57 -32 -66 -14 -51 51 46
119 245 108 315 l-4 26 -2 -27z"/>
<path d="M3091 2059 c-76 -30 -157 -140 -176 -238 -10 -46 6 -34 45 37 46 81
108 160 149 188 36 24 26 31 -18 13z"/>
<path d="M2527 1862 c-3 -50 -14 -101 -30 -140 -28 -70 -15 -73 16 -4 18 42
39 222 25 222 -3 0 -8 -35 -11 -78z"/>
<path d="M4281 2121 c11 -30 18 -62 16 -72 -3 -12 0 -15 15 -11 11 2 16 8 11
11 -5 3 -15 25 -23 49 -7 24 -19 51 -26 60 -8 9 -4 -7 7 -37z"/>
<path d="M4358 2043 c7 -3 16 -2 19 1 4 3 -2 6 -13 5 -11 0 -14 -3 -6 -6z"/>
<path d="M4355 1870 c0 -65 3 -91 9 -77 11 29 11 156 0 167 -5 5 -9 -32 -9
-90z"/>
<path d="M2258 1511 c-36 -75 -80 -160 -97 -188 -17 -29 -30 -53 -28 -53 9 0
87 119 114 175 35 69 86 196 81 200 -2 1 -33 -59 -70 -134z"/>
<path d="M2454 1474 c-17 -53 -28 -92 -23 -87 11 11 61 163 57 173 -2 5 -17
-34 -34 -86z"/>
<path d="M2411 1527 c-6 -18 -31 -69 -56 -112 -26 -48 -35 -68 -20 -50 31 37
80 131 89 168 9 38 0 34 -13 -6z"/>
<path d="M2195 1179 c-36 -23 -125 -57 -180 -70 -37 -8 -36 -8 16 -5 57 4 132
35 179 75 31 25 24 26 -15 0z"/>
<path d="M2070 1170 c-20 -6 -21 -8 -5 -8 11 0 29 3 40 8 25 11 -1 11 -35 0z"/>
<path d="M2008 1153 c6 -2 18 -2 25 0 6 3 1 5 -13 5 -14 0 -19 -2 -12 -5z"/>
<path d="M2355 860 c10 -11 20 -20 23 -20 3 0 -3 9 -13 20 -10 11 -20 20 -23
20 -3 0 3 -9 13 -20z"/>
</g>
</svg>